<svg width="745" height="509" viewBox="0 0 745 509" fill="none" xmlns="http://www.w3.org/2000/svg">
<path d="M211.142 192.112C211.769 201.376 212.336 210.671 212.993 219.935C213.56 228.034 214.217 236.103 214.784 244.202C214.993 247.19 214.575 250.149 213.59 253.018C210.008 263.477 196.963 266.018 189.649 257.71C186.067 253.675 184.992 248.684 184.246 243.544C181.052 222.326 177.977 201.078 174.604 179.859C173.649 173.912 171.261 168.294 169.052 161.749C166.186 167.606 163.708 172.687 161.201 177.737C160.633 178.903 160.066 180.098 159.32 181.174C155.857 186.314 151.2 188.108 146.156 186.314C140.693 184.342 137.409 179.321 137.917 173.464C138.126 171.193 138.693 169.011 139.529 166.889C145.887 150.423 152.275 133.986 158.454 117.489C160.574 111.811 164.096 108.136 170.067 106.462C177.5 104.37 184.903 102.039 192.157 99.3494C197.47 97.3769 202.336 97.9746 207.411 100.007C224.008 106.641 240.247 114.113 256.606 121.285C260.635 123.048 264.755 124.692 268.606 126.843C274.725 130.28 277.173 136.855 274.934 142.682C272.695 148.54 267.203 151.17 260.576 149.257C250.516 146.328 240.307 143.908 230.127 141.457C227.142 140.74 226.784 141.218 227.501 144.207C230.814 158.492 239.351 170.117 246.516 182.459C253.232 193.995 260.128 205.441 266.964 216.946C269.173 220.682 270.845 224.567 270.845 229.05C270.874 235.176 268.158 239.599 262.785 242.319C257.71 244.919 252.874 244.082 248.307 240.884C245.829 239.151 243.919 236.88 242.158 234.429C232.635 220.981 223.083 207.563 213.56 194.144C213.023 193.397 212.455 192.65 211.888 191.903C211.62 191.993 211.381 192.052 211.142 192.112Z" fill="#FED006"/>
<path d="M139.558 62.7105C139.558 46.8117 149.589 34.3198 163.738 32.0485C180.126 29.4187 195.888 41.014 199.172 58.0484C202.336 74.6047 193.769 89.9655 178.873 94.4482C162.544 99.3792 144.812 88.4414 140.454 70.7495C139.767 67.9403 139.409 65.1012 139.558 62.7105Z" fill="#FED006"/>
<path d="M377.742 118.535C382.817 135.181 387.175 152.036 393.116 168.413C393.922 170.655 394.549 172.986 394.996 175.317C396.161 181.204 393.832 184.193 387.981 184.85C385.772 185.089 382.638 183.834 381.623 185.507C380.727 187.002 382.071 189.841 382.459 192.052C384.011 201.346 385.623 210.641 387.116 219.935C387.862 224.597 387.653 229.259 385.623 233.622C383.653 237.866 380.28 240.257 375.533 240.466C370.966 240.675 368.22 237.956 366.22 234.339C363.055 228.572 362.339 222.117 361.115 215.811C359.294 206.546 357.533 197.282 355.921 188.018C355.503 185.717 354.667 184.94 352.249 184.97C344.368 185.059 344.398 184.97 342.458 192.68C339.622 204.006 336.756 215.333 333.861 226.659C333.025 229.916 331.801 233.025 329.891 235.804C325.084 242.797 315.681 242.588 311.204 235.356C308.099 230.365 308.069 224.896 309.233 219.397C311.442 208.878 313.771 198.418 316.219 187.958C316.696 185.866 316.428 185.328 314.219 185.239C302.278 184.611 299.562 180.995 302.099 169.28C304.995 155.802 311.204 143.459 315.651 130.519C316.995 126.634 318.487 122.779 319.263 118.535C316.338 121.404 313.383 124.214 310.517 127.142C307.174 130.549 303.98 134.105 300.666 137.542C298.756 139.544 296.547 141.158 293.95 142.234C290.188 143.788 286.517 143.997 283.203 141.128C279.83 138.2 278.725 134.464 279.591 130.131C280.248 126.903 281.919 124.154 284.099 121.703C296.696 107.508 309.353 93.3424 321.831 79.0873C325.89 74.4551 330.577 72.2735 336.876 72.5724C344.727 72.931 352.637 72.9011 360.488 72.3632C367.533 71.885 372.279 75.0528 376.25 80.2827C386.339 93.6113 396.459 106.91 406.579 120.209C408.609 122.869 410.818 125.379 412.012 128.577C413.862 133.508 412.907 138.289 409.474 141.009C406.28 143.519 401.982 143.25 397.534 140.232C393.056 137.213 390.429 132.551 387.026 128.577C384.071 125.14 381.265 121.614 378.369 118.117C378.22 117.758 378.28 117.131 377.653 117.4C377.533 117.37 377.712 118.117 377.742 118.535ZM319.831 117.46C319.771 117.519 319.622 117.609 319.622 117.669C319.652 117.818 319.741 117.968 319.801 118.117C319.86 118.057 320.01 117.968 320.01 117.908C320.01 117.758 319.92 117.609 319.831 117.46Z" fill="#EC1D25"/>
<path d="M319.473 31.8692C319.502 13.6095 332.995 -0.46633 350.04 0.0118285C360.787 0.310678 368.787 5.71985 374.22 14.8646C382.28 28.4623 379.325 46.6622 367.593 56.584C350.518 71.0184 324.726 61.3955 320.219 38.922C319.711 36.4714 319.294 34.0209 319.473 31.8692Z" fill="#EC1D25"/>
<path d="M96.6024 259.562C94.7517 260.429 93.1695 261.266 91.5576 261.923C85.7366 264.284 81.8857 262.73 79.5275 256.873C76.8409 250.208 75.4975 243.156 73.8856 236.192C70.4228 221.101 67.0496 205.949 63.7063 190.827C63.2883 188.915 62.4824 187.898 60.4226 187.271C43.6462 182.28 26.8996 177.14 10.153 172.03C7.37678 171.193 4.80956 169.967 2.80952 167.816C0.242308 165.066 -0.742786 161.958 0.600524 158.282C1.91398 154.696 4.95882 153.74 8.27232 153.411C12.7202 152.963 17.0486 154.188 21.3771 154.935C33.8251 157.057 46.2432 159.299 58.6614 161.6C60.1241 161.869 61.1689 161.48 62.3331 160.793C68.3332 157.386 74.3632 153.979 80.4529 150.662C82.3335 149.646 83.5873 148.301 84.4828 146.358C91.259 131.625 98.1249 116.922 105.021 102.248C105.827 100.545 106.812 98.8414 108.036 97.4069C110.424 94.6276 113.379 92.954 117.2 94.1494C121.051 95.3448 123.558 98.5724 123.857 102.607C124.096 105.894 123.14 108.972 121.946 111.991C115.857 127.411 109.797 142.832 103.588 158.193C102.632 160.554 102.931 161.809 104.841 163.602C115.468 173.554 125.857 183.774 136.394 193.816C142.365 199.494 148.454 205.023 154.454 210.641C155.41 211.537 156.365 212.464 157.231 213.42C162.216 218.949 161.559 222.834 155.081 226.57C150.962 228.96 150.962 228.96 153.827 232.606C159.768 240.078 165.708 247.549 171.649 255.05C174.574 258.756 176.753 262.88 177.261 267.631C177.768 272.174 176.097 275.85 172.305 278.42C168.664 280.9 164.992 280.064 161.559 277.942C155.947 274.505 152.186 269.156 148.036 264.225C142.185 257.291 136.364 250.328 130.723 243.245C129.349 241.542 128.394 241.512 126.633 242.468C119.886 246.204 119.827 246.144 121.797 253.705C124.722 265.002 127.618 276.328 130.573 287.624C131.081 289.627 131.17 291.629 131.2 293.661C131.26 299.758 129.17 303.463 124.902 304.988C120.006 306.721 114.663 305.167 111.05 300.923C108.215 297.576 106.543 293.661 105.349 289.477C102.453 279.615 99.5279 269.693 96.6024 259.562Z" fill="#36C1CE"/>
<path d="M81.7663 122.122C81.7663 138.558 69.5571 151.23 53.7358 151.17C36.631 151.11 22.1531 136.018 22.2128 118.326C22.2725 101.919 34.5116 89.3678 50.3925 89.3976C67.7063 89.3976 81.7663 104.071 81.7663 122.122Z" fill="#36C1CE"/>
<path d="M459.147 134.643C451.654 138.05 444.788 142.563 437.594 146.478C434.281 148.271 430.848 149.466 427.027 149.167C421.236 148.719 417.415 143.459 418.728 137.751C419.713 133.388 422.549 130.43 426.251 128.158C441.833 118.655 457.386 109.152 472.998 99.7079C476.849 97.3769 480.938 96.6896 485.356 98.0942C493.536 100.694 501.655 103.473 509.924 105.655C514.939 106.97 517.775 110.198 519.387 114.471C525.715 131.177 531.835 148.002 537.984 164.767C538.91 167.248 539.178 169.848 538.82 172.508C538.313 176.333 536.283 178.873 532.671 180.128C529.298 181.294 526.581 179.829 524.223 177.618C521.924 175.466 520.491 172.717 519.357 169.788C516.79 163.154 514.133 156.519 510.79 149.944C510.79 153.292 510.76 156.609 510.79 159.956C510.969 173.912 510.133 187.898 511.088 201.855C511.148 202.572 511.088 203.289 511.029 204.006C510.252 213.42 507.894 215.123 498.879 212.374C496.372 211.597 495.685 212.075 495.387 214.645C494.192 224.597 492.789 234.519 491.446 244.47C490.968 248.057 489.804 251.434 487.804 254.482C484.849 258.995 480.103 261.027 475.565 259.801C471.416 258.666 468.998 255.229 468.49 249.67C467.923 243.544 468.879 237.507 469.535 231.471C470.401 223.402 471.207 215.333 472.252 207.264C472.55 204.963 471.744 204.156 469.714 203.528C462.878 201.436 462.908 201.376 459.117 207.592C453.863 216.259 448.609 224.956 443.356 233.622C441.624 236.491 439.744 239.241 437.296 241.572C433.176 245.516 429.445 246.503 425.385 244.62C421.027 242.588 418.43 238.075 418.728 232.905C418.967 228.512 420.519 224.567 422.698 220.772C427.355 212.703 431.893 204.604 436.579 196.565C437.624 194.742 438.012 193.606 435.355 193.218C434.43 193.098 433.564 192.56 432.699 192.202C426.191 189.393 424.699 185.597 427.505 179.052C430.699 171.581 435.923 165.485 440.788 159.179C446.341 152.007 451.923 144.864 457.445 137.662C458.132 136.765 459.296 136.078 459.207 134.703C459.386 134.643 459.535 134.584 459.714 134.554C459.625 134.434 459.535 134.315 459.475 134.195C459.356 134.345 459.266 134.494 459.147 134.643Z" fill="#662E91"/>
<path d="M481.356 66.4759C481.356 51.8921 491.745 38.8025 505.178 36.4715C523.835 33.214 539.805 49.1726 536.999 68.2989C535.089 81.3885 526.372 91.639 514.7 94.4482C497.984 98.4827 481.864 86.0506 481.356 68.6575C481.356 67.9104 481.356 67.1932 481.356 66.4759Z" fill="#662E91"/>
<path d="M717.361 90.7126C718.764 89.308 720.078 87.9333 721.451 86.6781C726.705 81.9264 733.839 80.8506 738.914 84.0184C744.138 87.2758 746.257 93.8804 744.198 100.844C742.347 107.119 738.377 111.991 733.57 116.234C725.839 123.018 716.854 127.561 707.391 131.386C705.928 131.984 704.973 131.894 704.018 130.609C696.525 120.747 689.958 110.467 688.047 97.885C687.271 92.685 687.719 87.6046 690.167 82.9126C692.973 77.5035 697.391 74.2759 703.659 74.6345C709.839 74.9931 713.57 78.8184 715.63 84.4368C716.346 86.3793 716.764 88.4712 717.361 90.7126Z" fill="#FED006"/>
<path d="M588.314 233.443C580.881 241.811 573.448 250.149 566.015 258.546C562.044 262.999 558.164 267.512 554.194 271.994C552.611 273.788 550.791 275.342 548.701 276.537C543.626 279.496 538.552 279.824 533.626 276.208C528.701 272.592 526.76 266.944 528.312 260.967C529.148 257.68 530.73 254.781 532.76 252.061C544.999 235.714 557.149 219.307 569.507 203.08C573.925 197.252 575.866 190.349 579.657 183.027C573.209 185.179 567.746 187.032 562.283 188.825C560.134 189.542 557.985 190.319 555.776 190.737C551.208 191.634 547.089 190.648 544.492 186.494C541.835 182.19 541.686 177.678 544.581 173.344C546.343 170.685 548.91 168.951 551.805 167.666C568.104 160.344 584.642 153.531 600.762 145.79C605.06 143.728 609.538 143.818 613.926 145.731C619.389 148.121 624.852 150.482 630.255 153.023C632.165 153.919 633.329 153.68 634.852 152.156C646.076 140.919 657.419 129.802 668.703 118.625C670.315 117.011 672.017 115.547 674.106 114.531C677.987 112.648 681.748 112.648 685.181 115.368C688.763 118.207 690.166 121.912 689.241 126.485C688.554 129.892 686.674 132.611 684.495 135.151C673.33 148.211 662.196 161.331 650.972 174.331C647.3 178.574 645.389 183.744 642.942 188.616C637.837 198.746 632.941 208.967 628.016 219.158C623.359 228.811 621.867 239.42 619.001 249.611C615.389 262.461 612.225 275.431 608.792 288.341C608.344 290.045 607.627 291.748 606.851 293.332C603.209 300.833 596.523 304.001 589.239 301.76C582.612 299.728 578.731 293.153 579.985 285.204C581.925 272.951 584.194 260.758 586.343 248.565C587.209 243.634 588.075 238.733 588.941 233.802C588.732 233.712 588.523 233.562 588.314 233.443Z" fill="#C5D82D"/>
<path d="M603.031 116.175C603.001 100.634 615.031 87.9931 629.837 87.9632C643.837 87.9333 654.584 99.0206 654.614 113.485C654.644 128.696 642.195 141.756 627.628 141.846C613.717 141.905 603.06 130.788 603.031 116.175Z" fill="#C5D82D"/>
<path d="M543.805 379.281C549.746 373.514 554.253 367.059 558.492 360.424C559.895 358.213 561.238 355.971 562.701 353.79C566.313 348.38 568.701 348.141 573.448 352.744C576.821 356.001 579.239 360.006 581.776 363.891C584.761 368.463 587.717 373.065 592.284 376.681C595.866 369.659 597.896 362.307 600.254 355.105C603.12 346.288 605.807 337.383 609.598 328.925C611.568 324.502 615.18 322.56 619.299 323.397C625.061 324.562 627.449 328.567 625.628 334.693C621.986 346.886 618.225 359.079 614.254 371.183C611.926 378.295 609.239 385.318 606.583 392.311C605.239 395.868 603.568 399.334 600.791 402.054C596.881 405.909 593.388 406.297 589.09 402.801C583.209 397.989 579.239 391.534 574.94 385.378C573.507 383.316 572.194 381.194 570.731 379.192C569.388 377.369 568.074 377.19 566.582 379.341C562.731 384.93 558.671 390.369 554.731 395.927C552.164 399.543 549.447 403.01 546.044 405.849C540.372 410.571 535.716 410.003 531.745 403.787C527.626 397.302 525.178 390.07 522.85 382.838C518.462 369.24 514.312 355.583 510.103 341.925C508.73 337.472 509.625 334.753 512.79 332.9C516.581 330.659 520.611 331.047 523.596 334.125C526.462 337.054 528.521 340.551 530.044 344.346C534.372 355.284 538.641 366.282 542.94 377.249C543.119 377.757 543.387 378.295 543.805 379.281Z" fill="#030303"/>
<path d="M382.19 409.585C376.817 409.704 371.474 409.794 366.19 408.509C361.682 407.403 358.906 404.564 358.936 400.35C359.026 382.898 356.249 365.654 355.384 348.261C354.727 335.022 356.249 332.93 368.877 328.567C376.22 326.027 383.772 324.353 391.564 324.024C403.534 323.516 411.206 331.735 409.952 343.599C409.594 347.185 408.668 350.622 407.773 354.089C406.997 357.107 407.773 359.498 410.609 361.052C411.862 361.739 413.056 362.546 414.28 363.233C423.385 368.374 428.102 377.459 426.549 386.992C424.788 397.84 417.176 406.029 406.728 407.822C398.668 409.256 390.399 409.226 382.19 409.585ZM373.653 387.918C373.712 388.875 373.772 389.831 373.802 390.757C373.951 395.18 375.683 397.063 380.011 397.392C381.444 397.511 382.877 397.481 384.28 397.332C391.773 396.555 399.026 394.583 406.28 392.7C410.161 391.714 412.042 388.576 412.519 384.78C413.355 378.385 410.191 373.753 403.653 372.079C396.25 370.167 389.295 372.587 382.399 374.829C374.339 377.459 373.056 379.55 373.653 387.918ZM386.578 336.068C382.728 336.247 377.713 337.502 373.056 340.162C371.115 341.268 369.354 342.822 369.623 345.183C370.22 350.502 370.19 355.911 371.235 361.201C371.712 363.592 372.966 363.891 375.026 363.353C379.683 362.157 383.951 360.095 388.131 357.794C393.146 355.045 395.802 350.831 396.399 345.213C397.146 338.518 394.817 335.978 386.578 336.068Z" fill="#030303"/>
<path d="M91.7664 392.879C91.7664 395.629 91.7963 398.378 91.7664 401.127C91.7067 404.056 90.3933 406.387 88.1246 408.18C82.3931 412.723 77.1094 410.81 75.2288 403.787C73.3183 396.645 74.0049 389.323 73.5272 382.091C72.6019 368.284 69.8555 354.656 69.8555 340.76C69.8555 330.898 71.5869 328.477 80.9602 325.608C89.647 322.948 98.3636 320.498 107.558 323.187C115.05 325.399 121.051 329.702 125.498 336.038C130.155 342.613 129.17 349.337 125.11 355.762C122.633 359.677 119.827 363.413 117.11 367.178C113.707 371.93 113.677 376.622 117.14 381.373C119.051 383.973 120.842 386.633 122.722 389.233C124.543 391.744 126.245 394.314 127.588 397.123C130.454 403.13 129.857 406.746 125.588 408.778C119.17 411.856 114.513 410.422 111.707 404.325C108.304 397.003 105.02 389.592 101.767 382.21C100.811 379.999 99.8263 377.996 96.9307 378.415C94.1247 378.803 92.1843 380.447 91.9455 383.226C91.647 386.424 91.8858 389.652 91.8858 392.879C91.8261 392.879 91.7963 392.879 91.7664 392.879ZM96.5426 336.158C95.9456 336.158 95.3486 336.158 94.7516 336.158C87.8559 336.307 85.2887 339.385 86.1842 346.139C86.5424 348.739 86.6021 351.369 86.7812 353.969C86.9604 356.718 87.1992 359.438 88.0947 362.068C88.9902 364.728 91.05 366.072 93.6471 365.265C102.244 362.576 109.02 357.645 111.797 348.649C113.379 343.539 110.812 339.206 105.677 337.472C102.722 336.546 99.6472 336.187 96.5426 336.158Z" fill="#030303"/>
<path d="M340.249 385.199C340.07 389.084 340.786 393.417 338.965 397.511C336.667 402.651 333.264 403.697 328.786 400.35C324.07 396.824 320.458 392.162 316.547 387.829C308.308 378.744 300.248 369.479 292.099 360.275C291.532 359.647 290.964 359.049 290.338 358.511C289.83 358.063 289.293 357.406 288.487 357.705C287.621 358.063 288.009 358.93 287.89 359.587C287.054 364.698 287.561 369.838 288.129 374.918C288.785 381.015 288.636 387.081 288.546 393.148C288.487 396.166 287.979 399.095 286.337 401.695C284.337 404.893 280.427 406.536 276.725 405.64C273.173 404.773 272.277 401.934 272.039 398.826C270.874 383.137 269.71 367.447 268.636 351.728C268.307 346.737 267.442 341.746 268.337 336.755C269.471 330.539 273.083 328.746 278.606 331.854C285.979 335.978 291.741 342.105 297.771 347.842C305.353 355.105 312.816 362.486 320.338 369.808C321.084 370.525 321.741 371.81 322.935 371.362C324.099 370.914 323.771 369.509 323.771 368.463C323.741 359.826 321.711 351.429 320.547 342.941C320.189 340.341 319.711 337.741 319.652 335.141C319.562 330.838 321.711 328.537 326.249 327.73C330.428 326.983 333.771 328.746 335.234 332.452C336.368 335.291 336.189 338.339 336.458 341.268C337.741 355.822 339.801 370.256 340.249 385.199Z" fill="#030303"/>
<path d="M227.381 398.617C227.202 401.546 225.918 404.325 223.47 406.447C219.709 409.704 215.739 409.196 213.321 404.803C210.455 399.603 207.948 394.194 205.44 388.785C201.56 380.447 197.888 378.415 188.903 379.282C183.708 379.79 178.455 379.64 173.29 380.537C169.29 381.224 166.454 383.286 164.992 387.022C163.41 391.116 162.036 395.3 160.514 399.454C158.604 404.654 155.439 408.479 149.618 409.704C142.961 411.109 139.349 407.553 141.32 400.858C142.932 395.389 144.991 390.04 146.812 384.631C152.603 367.477 158.514 350.383 165.589 333.737C166.753 330.987 167.917 328.238 169.887 325.937C174.096 321.066 180.067 320.886 184.514 325.608C185.649 326.804 186.664 328.208 187.47 329.643C198.903 350.024 211.47 369.718 223.948 389.442C225.679 392.162 227.321 394.911 227.381 398.617ZM179.231 369.39C179.231 369.419 179.231 369.449 179.261 369.509C181.977 369.121 184.694 368.852 187.38 368.314C189.858 367.836 191.291 366.192 190.395 363.652C188.097 357.226 184.843 351.249 180.246 346.169C178.067 343.748 176.067 344.226 174.813 347.245C172.962 351.638 171.858 356.27 170.962 360.962C169.559 368.254 170.843 369.808 178.186 369.539C178.514 369.479 178.873 369.419 179.231 369.39Z" fill="#030303"/>
<path d="M432.52 367.238C432.46 342.254 452.848 324.891 476.908 329.015C486.67 330.689 493.774 336.277 497.775 345.213C503.416 357.794 503.416 370.764 498.222 383.465C492.789 396.734 480.759 404.654 468.013 404.176C452.789 403.578 439.684 394.074 434.758 380.088C433.266 375.785 432.37 371.362 432.52 367.238ZM449.505 366.879C449.535 378.295 458.251 387.709 468.789 387.649C479.416 387.619 488.819 377.279 488.879 365.594C488.939 353.849 481.237 345.78 470.043 345.84C458.222 345.93 449.475 354.865 449.505 366.879Z" fill="#030303"/>
<path d="M235.56 373.155C235.441 367.447 234.695 361.739 235.112 356.001C235.411 351.847 236.217 347.902 240.635 345.96C244.098 344.436 246.575 345.123 248.546 348.38C250.367 351.399 251.053 354.836 251.322 358.272C252.456 372.766 253.77 387.261 252.904 401.845C252.785 403.638 252.605 405.401 252.337 407.164C251.979 409.495 251.113 411.587 248.516 412.244C245.65 412.962 243.083 412.454 241.023 410.182C238.098 406.955 237.65 402.861 237.292 398.856C236.516 390.309 236.098 381.732 235.56 373.155Z" fill="#030303"/>
<path d="M234.128 328.268C234.187 323.008 237.292 319.631 242.098 319.661C246.874 319.691 250.098 322.948 250.128 327.79C250.128 333.378 246.665 337.054 241.471 336.994C236.904 336.935 234.068 333.558 234.128 328.268Z" fill="#030303"/>
<path d="M161.887 446.164C161.798 432.656 165.231 429.847 177.38 431.909C186.425 433.433 195.619 433.941 204.455 436.571C220.187 441.293 230.277 454.532 230.038 470.072C229.889 479.874 224.695 486.867 217.082 492.336C207.052 499.508 195.47 501.929 183.5 503.184C180.306 503.513 177.082 503.812 173.888 503.901C169.171 504.081 167.111 502.437 166.604 497.536C165.828 490.184 165.44 482.803 164.872 475.421C164.037 465.23 162.186 455.129 161.887 446.164ZM175.38 454.741C175.619 465.141 177.917 475.272 179.828 485.433C180.365 488.331 182.186 490.154 185.38 489.706C194.007 488.541 202.187 486.09 208.814 480.233C218.247 471.925 215.739 456.743 204.246 451.513C198.396 448.853 192.276 446.881 186.067 445.327C177.141 443.116 175.35 444.61 175.35 453.635C175.38 454.024 175.38 454.382 175.38 454.741Z" fill="#030303"/>
<path d="M426.102 469.893C426.102 479.067 426.102 488.272 426.102 497.446C426.102 499.479 426.012 501.481 425.504 503.483C424.609 507.04 422.101 508.534 418.698 508.743C415.534 508.952 413.086 507.607 411.922 504.559C410.34 500.465 410.191 496.191 410.758 491.888C411.624 485.343 409.922 483.132 403.385 482.474C398.191 481.966 393.175 483.102 388.19 484.297C385.175 485.014 384.369 487.315 384.728 490.065C385.026 492.426 385.623 494.757 385.922 497.118C386.519 502.049 383.862 505.426 378.966 506.143C374.399 506.83 371.981 504.948 370.817 499.777C367.384 484.297 365.085 468.607 363.205 452.858C362.608 447.778 364.578 444.789 368.757 443.893C373.115 442.966 376.16 444.819 377.384 449.272C378.608 453.785 378.727 458.476 379.444 463.049C380.22 467.98 381.175 469.026 386.131 469.116C392.429 469.205 398.758 469.056 405.056 468.787C409.415 468.607 411.056 466.874 411.056 462.421C411.056 455.996 410.698 449.541 410.519 443.116C410.43 440.217 410.937 437.378 412.042 434.718C413.295 431.759 415.265 429.697 418.848 430.116C422.221 430.474 424.878 432.716 425.325 436.272C425.743 439.679 425.773 443.175 425.803 446.612C425.863 454.382 425.833 462.122 425.833 469.893C425.952 469.893 426.012 469.893 426.102 469.893Z" fill="#030303"/>
<path d="M89.6171 461.375C95.3187 453.725 100.602 446.582 105.946 439.47C107.319 437.647 108.752 435.913 110.274 434.24C111.05 433.373 112.006 432.626 112.991 431.968C115.558 430.265 118.036 430.743 120.155 432.745C122.215 434.718 121.886 436.989 120.513 439.26C115.886 446.911 111.23 454.532 106.632 462.182C103.558 467.322 103.707 468.398 108.006 472.672C113.767 478.38 119.588 484.058 125.349 489.736C126.543 490.902 127.707 492.097 128.752 493.412C130.603 495.713 132.215 498.283 130.125 501.182C128.066 504.051 125.051 505.067 121.618 504.38C119.051 503.872 117.11 502.288 115.439 500.345C110.035 494.129 104.603 487.943 99.289 481.697C97.9755 480.173 96.8113 478.768 94.5426 479.456C92.1545 480.173 91.647 482.085 91.6172 484.237C91.5873 488.78 91.7067 493.322 91.5575 497.865C91.3187 504.17 88.841 506.98 83.9155 506.98C79.8856 506.98 77.8856 505.575 77.3184 501.511C76.4825 495.623 75.9154 489.676 75.4676 483.729C74.3929 469.564 73.6467 455.398 73.7959 441.203C73.8258 438.752 74.2735 436.421 76.3034 434.748C80.214 431.55 85.826 433.463 86.7514 438.573C87.7365 444.072 88.1843 449.69 88.841 455.249C89.05 457.072 89.2888 458.895 89.6171 461.375Z" fill="#030303"/>
<path d="M289.353 475.122C289.382 466.187 290.726 459.791 293.233 453.665C299.86 437.437 314.726 430.534 332.13 435.435C338.697 437.288 344.548 440.217 348.667 445.955C351.145 449.391 351.055 452.201 348.369 454.532C345.891 456.683 343.772 456.414 340.518 453.605C334.876 448.734 328.547 445.417 320.935 445.148C316.846 444.998 313.502 446.642 310.756 449.511C300.935 459.702 301.233 479.037 311.293 488.989C322.219 499.777 337.742 496.849 343.652 482.833C344.846 480.023 345.712 477.035 349.831 478.021C353.324 478.858 355.085 481.219 355.205 485.373C355.324 489.885 353.772 493.531 350.757 497.028C334.577 515.855 307.592 509.669 297.8 497.656C291.89 490.393 289.323 482.085 289.353 475.122Z" fill="#030303"/>
<path d="M462.46 437.856C479.446 437.856 488.222 444.311 491.804 456.534C494.192 464.752 494.162 473.03 491.416 481.189C487.924 491.499 481.267 498.971 470.281 500.823C459.147 502.706 449.385 499 442.281 490.125C433.922 479.695 432.848 467.89 438.281 455.847C443.714 443.803 453.654 438.214 462.46 437.856ZM482.431 468.727C482.371 459.134 475.864 452.29 466.819 452.35C456.789 452.41 449.415 460.001 449.505 470.251C449.565 479.725 456.699 487.375 465.565 487.435C474.58 487.465 482.491 478.709 482.431 468.727Z" fill="#030303"/>
<path d="M563.686 468.129C564.104 476.646 562.015 484.446 556.671 491.171C545.566 505.127 524.253 504.469 512.611 489.945C504.043 479.246 503.357 463.467 510.939 451.812C518.163 440.695 532.044 435.345 544.999 438.693C555.268 441.322 562.552 450.706 563.627 462.78C563.836 464.543 563.686 466.336 563.686 468.129ZM553.089 468.727C553.029 459.194 546.492 452.32 537.447 452.35C527.506 452.38 519.954 460.12 520.044 470.221C520.133 479.635 527.417 487.435 536.133 487.465C545.119 487.465 553.149 478.619 553.089 468.727Z" fill="#030303"/>
<path d="M259.8 506.8C243.023 506.98 233.471 494.577 236.575 479.635C237.411 475.63 241.531 473.299 245.352 474.136C249.382 475.033 250.605 477.573 249.71 483.191C248.874 488.361 250.665 492.187 254.725 493.83C259.471 495.743 264.546 494.278 267.412 490.154C271.591 484.118 270.546 476.348 264.845 471.476C262.068 469.115 258.815 467.711 255.382 466.665C251.173 465.38 246.964 464.095 243.62 460.897C236.486 454.083 236.545 444.52 243.859 438.005C246.725 435.435 250.068 433.582 253.77 432.536C262.427 430.056 271.83 436.87 271.651 445.387C271.591 448.196 270.546 450.168 267.77 451.125C265.083 452.051 264.158 450.109 262.994 448.465C260.934 445.566 257.919 444.64 254.606 444.49C252.426 444.401 251.083 445.775 250.277 447.658C249.471 449.571 250.217 451.155 251.71 452.44C253.829 454.292 256.486 455.04 259.113 455.876C268.606 458.895 275.442 465.111 280.188 473.628C285.054 482.414 283.054 492.964 275.621 499.718C270.307 504.499 264.039 506.651 259.8 506.8Z" fill="#030303"/>
<path d="M574.582 441.024C574.672 435.585 577.418 432.477 581.806 432.267C586.433 432.058 589.299 434.389 589.627 439.559C590.194 448.346 590.314 457.191 590.582 466.007C590.761 472.074 590.791 478.171 591.06 484.237C591.269 488.69 592.224 489.437 596.642 488.869C600.881 488.361 605.12 487.614 609.359 487.076C611.478 486.807 613.657 486.628 615.747 486.807C620.225 487.166 622.314 489.168 622.434 492.755C622.553 496.64 620.613 498.941 616.254 499.658C611.329 500.465 606.344 501.092 601.418 501.81C597.418 502.377 593.388 502.915 589.418 503.603C582.911 504.738 579.657 502.587 578.731 496.012C578.194 492.246 577.985 488.421 577.687 484.626C576.642 469.863 575.597 455.129 574.582 441.024Z" fill="#030303"/>
<path d="M150.424 488.989C150.424 493.292 150.544 497.596 150.395 501.869C150.275 504.798 149.738 507.727 146.036 508.265C142.842 508.743 140.335 507.069 138.932 503.573C137.111 499.03 137.32 494.189 136.961 489.467C136.364 481.129 135.947 472.791 135.529 464.453C135.379 461.823 135.648 459.164 136.454 456.683C137.439 453.665 139.827 451.932 142.872 451.812C145.648 451.692 146.962 453.964 147.797 456.295C148.335 457.849 148.872 459.492 149.021 461.136C149.798 470.4 150.932 479.665 150.424 488.989Z" fill="#030303"/>
<path d="M148.275 437.168C148.305 441.741 145.529 444.938 141.409 445.088C137.618 445.207 134.842 442.189 134.782 437.856C134.723 433.433 137.499 430.414 141.618 430.444C145.648 430.474 148.245 433.104 148.275 437.168Z" fill="#030303"/>
<path d="M289.89 295.036C291.084 291.061 290.069 287.744 289.591 284.367C289.323 282.395 288.666 280.093 291.681 279.555C294.666 279.018 295.353 280.96 295.532 283.381C295.979 289.447 296.994 295.454 296.935 301.581C296.905 303.254 296.905 305.167 295.114 305.914C293.353 306.631 292.278 305.107 291.233 304.001C287.89 300.415 284.636 296.799 281.293 293.243C280.516 292.406 279.949 291.27 278.516 290.882C277.442 292.854 278.099 294.857 278.307 296.799C278.606 299.429 278.576 302.059 278.069 304.629C277.74 306.332 276.636 307.378 274.845 307.408C272.994 307.438 272.367 306.213 272.277 304.629C271.8 297.965 271.322 291.3 270.904 284.636C270.815 283.201 270.755 281.647 272.218 280.781C273.919 279.765 275.263 281.05 276.337 281.976C279.949 285.084 283.412 288.371 286.875 291.659C287.949 292.645 288.875 293.87 289.89 295.036Z" fill="#030303"/>
<path d="M300.845 294.587C300.875 286.309 304.756 280.034 311.234 278.509C316.637 277.254 321.622 278.42 325.682 282.454C326.846 283.62 327.652 285.024 326.398 286.548C325.055 288.162 323.652 287.385 322.368 286.309C322.189 286.16 322.04 285.951 321.861 285.831C317.92 282.873 313.532 282.155 310.965 283.978C307.741 286.279 306.129 292.077 307.442 296.709C308.607 300.863 311.98 303.613 316.159 304.001C319.89 304.36 322.279 302.656 323.771 299.399C324.398 298.024 324.786 296.171 326.935 296.859C329.025 297.546 329.323 299.22 328.995 301.192C328.458 304.629 323.831 308.813 319.383 309.739C309.025 311.861 300.815 305.167 300.845 294.587Z" fill="#030303"/>
<path d="M344.398 308.185C342.249 308.185 340.1 308.215 337.98 308.185C335.562 308.155 333.98 306.81 334.01 304.509C334.07 297.696 332.637 291.001 332.219 284.247C332.01 280.84 333.443 279.466 336.727 279.376C341.473 279.286 346.219 279.017 350.996 278.808C352.697 278.719 354.399 279.107 354.458 281.02C354.548 283.142 352.667 283.082 351.085 283.142C348.13 283.291 345.175 283.56 342.189 283.769C339.503 283.919 338.906 285.562 338.965 287.923C339.025 290.523 340.548 291.121 342.757 290.971C344.548 290.852 346.309 290.673 348.1 290.673C349.981 290.673 352.458 290.404 352.339 293.123C352.249 295.394 349.891 294.827 348.339 294.946C346.697 295.096 345.025 295.155 343.354 295.245C341.383 295.335 340.189 296.112 340.398 298.323C340.607 300.325 340.428 302.447 343.264 302.895C344.966 303.164 346.578 302.776 348.219 302.656C349.652 302.567 351.085 302.477 352.488 302.567C354.22 302.656 355.026 303.882 355.085 305.436C355.145 306.99 354.011 307.886 352.637 307.976C349.921 308.125 347.175 308.036 344.428 308.036C344.398 308.095 344.398 308.155 344.398 308.185Z" fill="#030303"/>
<path d="M410.101 296.859C410.101 300.565 410.071 304.27 410.101 307.976C410.131 310.427 409.385 312.369 406.668 312.459C403.594 312.548 403.862 310.188 403.982 308.125C404.131 305.735 404.25 303.374 404.519 300.983C404.728 298.951 403.892 298.084 401.862 298.293C400.788 298.413 399.713 298.562 398.668 298.503C392.728 298.293 388.787 293.482 389.653 287.624C390.787 280.213 396.519 276.149 403.713 277.464C407.444 278.151 409.415 280.213 409.594 283.949C409.803 288.222 409.982 292.526 410.191 296.799C410.191 296.859 410.131 296.859 410.101 296.859ZM404.728 286.847C404.429 284.875 404.758 281.976 401.235 281.707C398.071 281.438 394.34 285.323 394.37 288.611C394.399 291.3 396.817 293.601 399.743 293.691C402.907 293.811 404.728 291.45 404.728 286.847Z" fill="#030303"/>
<path d="M244.635 309.052C237.292 309.052 233.232 304.181 234.217 298.323C234.575 296.261 235.59 295.066 237.799 295.155C240.307 295.245 240.187 297.068 240.038 298.741C239.859 300.833 240.217 302.537 242.337 303.463C244.098 304.24 245.68 303.852 246.934 302.597C248.606 300.953 249.083 298.861 248.307 296.679C247.591 294.647 245.979 293.422 244.038 292.615C242.934 292.167 241.77 291.958 240.635 291.539C236.844 290.105 234.575 286.907 235.113 283.739C235.65 280.482 239.919 277.194 243.561 277.254C246.725 277.284 249.441 279.884 249.382 282.813C249.382 283.799 249.292 284.755 248.277 285.234C247.232 285.742 246.456 285.353 245.799 284.516C245.441 284.068 245.023 283.5 244.516 283.321C243.113 282.813 241.441 281.767 240.546 283.859C239.71 285.742 241.352 286.369 242.695 286.817C245.77 287.863 248.606 289.238 250.844 291.719C253.74 294.946 255.441 298.473 253.531 302.776C251.561 307.169 247.829 308.932 244.635 309.052Z" fill="#030303"/>
<path d="M421.445 299.758C422.609 298.472 423.415 297.486 424.34 296.59C427.087 293.96 430.251 293.183 433.863 294.617C436.609 295.723 437.923 297.815 437.923 300.714C437.953 304.599 436.549 307.707 432.937 309.47C426.937 312.399 419.057 309.201 416.639 302.955C413.773 295.484 416.28 285.652 422.37 280.422C423.564 279.406 424.907 278.808 426.191 279.944C427.445 281.05 427.296 282.574 426.37 283.829C424.698 286.13 422.848 288.312 421.504 290.852C420.072 293.661 419.594 296.44 421.445 299.758ZM428.131 305.645C430.669 305.466 432.788 304.748 432.937 301.879C433.027 299.967 432.012 298.741 429.952 298.771C427.803 298.771 424.788 301.461 424.848 303.463C424.878 305.794 426.967 305.167 428.131 305.645Z" fill="#030303"/>
<path d="M447.833 278.211C450.102 278.211 452.341 278.211 454.609 278.211C457.624 278.181 458.729 279.824 458.221 282.574C457.863 284.427 457.266 286.28 456.58 288.013C453.893 294.737 450.609 301.282 450.49 308.783C450.46 310.845 448.968 311.682 447.057 311.592C445.087 311.473 444.072 310.337 444.102 308.305C444.191 302.298 446.52 296.948 448.908 291.599C450.012 289.149 452.759 286.369 451.565 284.217C450.341 281.976 446.759 284.158 444.221 283.739C442.699 283.47 441.146 283.53 439.594 283.381C438.34 283.261 437.057 282.932 437.176 281.378C437.266 280.004 438.012 278.868 439.624 278.749C442.37 278.569 445.087 278.48 447.833 278.33C447.833 278.27 447.833 278.24 447.833 278.211Z" fill="#030303"/>
<path d="M374.877 283.859C375.115 281.408 374.727 279.376 376.966 279.017C378.936 278.689 379.474 280.512 380.071 281.886C380.727 283.411 380.966 285.054 381.145 286.728C381.683 292.525 382.011 298.353 383.832 303.941C384.13 304.838 384.28 305.824 384.28 306.751C384.28 308.275 384.429 309.978 382.28 310.367C380.16 310.725 378.668 309.799 378.339 307.737C377.056 299.518 375.951 291.27 374.877 283.859Z" fill="#030303"/>
<path d="M259.053 295.932C259.053 294.229 258.994 291.868 259.083 289.477C259.143 287.535 259.77 285.861 262.038 285.742C264.128 285.622 264.546 287.505 264.725 288.939C265.412 294.827 266.039 300.774 265.501 306.721C265.382 308.066 265.292 309.739 263.233 309.769C261.292 309.799 260.367 308.514 260.158 306.9C259.68 303.463 259.441 300.026 259.053 295.932Z" fill="#030303"/>
<path d="M264.427 280.063C264.456 281.737 263.322 282.932 261.441 282.932C259.471 282.932 258.546 281.468 258.665 279.585C258.785 277.912 259.531 276.627 261.471 276.627C263.531 276.627 264.516 277.703 264.427 280.063Z" fill="#030303"/>
</svg>
