<svg width="746" height="510" viewBox="0 0 746 510" fill="none" xmlns="http://www.w3.org/2000/svg">
<path d="M211.973 192.846C212.599 202.11 213.167 211.405 213.823 220.669C214.391 228.768 215.047 236.837 215.614 244.936C215.823 247.924 215.405 250.883 214.42 253.752C210.838 264.211 197.793 266.752 190.48 258.444C186.897 254.409 185.823 249.418 185.076 244.278C181.882 223.06 178.808 201.812 175.435 180.593C174.479 174.646 172.091 169.028 169.882 162.483C167.016 168.34 164.539 173.421 162.031 178.471C161.464 179.637 160.897 180.832 160.151 181.908C156.688 187.048 152.031 188.842 146.986 187.048C141.523 185.076 138.24 180.055 138.747 174.198C138.956 171.927 139.523 169.745 140.359 167.623C146.718 151.157 153.106 134.72 159.285 118.224C161.404 112.545 164.927 108.87 170.897 107.196C178.33 105.104 185.733 102.773 192.987 100.083C198.301 98.111 203.166 98.7086 208.241 100.741C224.838 107.375 241.078 114.847 257.436 122.019C261.466 123.782 265.586 125.426 269.436 127.577C275.556 131.014 278.004 137.589 275.765 143.416C273.526 149.274 268.033 151.904 261.406 149.991C251.346 147.062 241.137 144.642 230.958 142.191C227.973 141.474 227.615 141.952 228.331 144.941C231.645 159.226 240.182 170.851 247.346 183.193C254.063 194.729 260.959 206.175 267.795 217.68C270.004 221.416 271.675 225.301 271.675 229.784C271.705 235.91 268.989 240.333 263.615 243.053C258.541 245.653 253.705 244.816 249.137 241.618C246.66 239.885 244.749 237.614 242.988 235.163C233.466 221.715 223.913 208.297 214.391 194.878C213.853 194.131 213.286 193.384 212.719 192.637C212.45 192.727 212.211 192.786 211.973 192.846Z" fill="#FED006"/>
<path d="M140.389 63.4445C140.389 47.5457 150.419 35.0538 164.569 32.7825C180.957 30.1527 196.719 41.748 200.002 58.7824C203.166 75.3387 194.599 90.6995 179.703 95.1822C163.375 100.113 145.643 89.1754 141.285 71.4835C140.598 68.6743 140.24 65.8353 140.389 63.4445Z" fill="#FED006"/>
<path d="M378.573 119.269C383.648 135.915 388.006 152.77 393.946 169.147C394.752 171.389 395.379 173.72 395.827 176.051C396.991 181.938 394.663 184.927 388.812 185.584C386.603 185.823 383.468 184.568 382.453 186.242C381.558 187.736 382.901 190.575 383.289 192.786C384.842 202.081 386.454 211.375 387.946 220.669C388.692 225.331 388.483 229.993 386.454 234.356C384.483 238.6 381.11 240.991 376.364 241.2C371.797 241.409 369.05 238.69 367.05 235.074C363.886 229.306 363.17 222.851 361.946 216.545C360.125 207.281 358.363 198.016 356.751 188.752C356.334 186.451 355.498 185.674 353.08 185.704C345.199 185.793 345.229 185.704 343.289 193.414C340.453 204.74 337.587 216.067 334.691 227.393C333.856 230.651 332.632 233.759 330.721 236.538C325.915 243.531 316.512 243.322 312.034 236.09C308.93 231.099 308.9 225.63 310.064 220.131C312.273 209.612 314.601 199.152 317.049 188.692C317.527 186.6 317.258 186.062 315.049 185.973C303.109 185.345 300.392 181.729 302.93 170.014C305.825 156.536 312.034 144.194 316.482 131.253C317.825 127.368 319.318 123.513 320.094 119.269C317.169 122.138 314.213 124.948 311.348 127.876C308.004 131.283 304.81 134.84 301.497 138.276C299.586 140.279 297.377 141.892 294.78 142.968C291.019 144.522 287.347 144.731 284.034 141.863C280.66 138.934 279.556 135.198 280.422 130.865C281.078 127.637 282.75 124.888 284.929 122.437C297.526 108.242 310.183 94.0765 322.661 79.8214C326.721 75.1892 331.408 73.0076 337.706 73.3065C345.557 73.6651 353.468 73.6352 361.319 73.0973C368.364 72.6191 373.11 75.7869 377.08 81.0168C387.17 94.3455 397.29 107.644 407.409 120.943C409.439 123.603 411.648 126.113 412.842 129.311C414.693 134.242 413.738 139.023 410.305 141.743C407.111 144.253 402.812 143.984 398.364 140.966C393.887 137.948 391.26 133.286 387.857 129.311C384.901 125.874 382.095 122.348 379.2 118.851C379.05 118.492 379.11 117.865 378.483 118.134C378.364 118.104 378.543 118.851 378.573 119.269ZM320.661 118.194C320.602 118.253 320.452 118.343 320.452 118.403C320.482 118.552 320.572 118.702 320.631 118.851C320.691 118.791 320.84 118.702 320.84 118.642C320.84 118.492 320.751 118.343 320.661 118.194Z" fill="#EC1D25"/>
<path d="M320.303 32.603C320.333 14.3434 333.826 0.267557 350.871 0.745715C361.617 1.04456 369.618 6.45373 375.051 15.5985C383.11 29.1962 380.155 47.3961 368.424 57.3179C351.349 71.7523 325.557 62.1293 321.049 39.6559C320.542 37.2053 320.124 34.7547 320.303 32.603Z" fill="#EC1D25"/>
<path d="M97.433 260.296C95.5823 261.163 94.0001 262 92.3882 262.657C86.5672 265.018 82.7163 263.464 80.3581 257.607C77.6714 250.943 76.3281 243.89 74.7162 236.926C71.2534 221.835 67.8802 206.683 64.5369 191.561C64.1189 189.649 63.313 188.632 61.2532 188.005C44.4768 183.014 27.7302 177.874 10.9836 172.764C8.20738 171.927 5.64016 170.702 3.64012 168.55C1.0729 165.8 0.0878106 162.692 1.43112 159.016C2.74458 155.43 5.78942 154.474 9.10292 154.145C13.5508 153.697 17.8792 154.922 22.2077 155.669C34.6557 157.791 47.0738 160.033 59.492 162.334C60.9547 162.603 61.9995 162.214 63.1637 161.527C69.1638 158.12 75.1938 154.713 81.2835 151.396C83.1641 150.38 84.4179 149.035 85.3134 147.092C92.0896 132.359 98.9555 117.656 105.851 102.982C106.657 101.279 107.642 99.5754 108.866 98.1409C111.254 95.3616 114.21 93.6881 118.03 94.8835C121.881 96.0789 124.389 99.3064 124.687 103.341C124.926 106.628 123.971 109.706 122.777 112.725C116.687 128.145 110.627 143.566 104.418 158.927C103.463 161.288 103.762 162.543 105.672 164.336C116.299 174.288 126.687 184.508 137.225 194.55C143.195 200.228 149.285 205.757 155.285 211.375C156.24 212.271 157.195 213.198 158.061 214.154C163.046 219.683 162.39 223.568 155.912 227.304C151.792 229.694 151.792 229.694 154.658 233.34C160.598 240.812 166.539 248.283 172.479 255.784C175.405 259.49 177.584 263.614 178.091 268.365C178.599 272.908 176.927 276.584 173.136 279.154C169.494 281.634 165.822 280.798 162.39 278.676C156.778 275.239 153.016 269.89 148.867 264.959C143.016 258.025 137.195 251.062 131.553 243.979C130.18 242.276 129.225 242.246 127.464 243.202C120.717 246.938 120.657 246.878 122.628 254.439C125.553 265.736 128.449 277.062 131.404 288.358C131.911 290.361 132.001 292.363 132.031 294.395C132.09 300.492 130.001 304.197 125.732 305.722C120.836 307.455 115.493 305.901 111.881 301.657C109.045 298.31 107.374 294.395 106.179 290.211C103.284 280.349 100.358 270.427 97.433 260.296Z" fill="#36C1CE"/>
<path d="M82.5969 122.855C82.5969 139.292 70.3877 151.963 54.5664 151.904C37.4616 151.844 22.9837 136.752 23.0434 119.06C23.1031 102.653 35.3422 90.1015 51.2231 90.1314C68.5369 90.1314 82.5969 104.805 82.5969 122.855Z" fill="#36C1CE"/>
<path d="M459.978 135.377C452.485 138.784 445.619 143.297 438.425 147.211C435.111 149.005 431.678 150.2 427.857 149.901C422.066 149.453 418.245 144.193 419.559 138.485C420.544 134.122 423.38 131.163 427.081 128.892C442.664 119.389 458.216 109.885 473.829 100.442C477.679 98.1106 481.769 97.4232 486.187 98.8278C494.366 101.428 502.486 104.207 510.755 106.389C515.77 107.704 518.606 110.931 520.218 115.205C526.546 131.91 532.666 148.736 538.815 165.501C539.74 167.981 540.009 170.581 539.651 173.241C539.143 177.067 537.113 179.607 533.501 180.862C530.128 182.027 527.412 180.563 525.053 178.352C522.755 176.2 521.322 173.45 520.188 170.522C517.621 163.887 514.964 157.253 511.62 150.678C511.62 154.025 511.591 157.342 511.62 160.69C511.799 174.646 510.964 188.632 511.919 202.588C511.979 203.305 511.919 204.023 511.859 204.74C511.083 214.154 508.725 215.857 499.71 213.108C497.202 212.331 496.516 212.809 496.217 215.379C495.023 225.331 493.62 235.252 492.277 245.204C491.799 248.79 490.635 252.167 488.635 255.216C485.68 259.728 480.933 261.76 476.396 260.535C472.246 259.399 469.828 255.963 469.321 250.404C468.754 244.278 469.709 238.241 470.366 232.204C471.232 224.135 472.038 216.066 473.082 207.997C473.381 205.696 472.575 204.889 470.545 204.262C463.709 202.17 463.739 202.11 459.948 208.326C454.694 216.993 449.44 225.689 444.186 234.356C442.455 237.225 440.574 239.974 438.126 242.305C434.007 246.25 430.275 247.236 426.216 245.354C421.857 243.321 419.26 238.809 419.559 233.639C419.798 229.246 421.35 225.301 423.529 221.505C428.186 213.436 432.723 205.338 437.41 197.299C438.455 195.476 438.843 194.34 436.186 193.951C435.261 193.832 434.395 193.294 433.529 192.935C427.022 190.126 425.529 186.331 428.335 179.786C431.529 172.315 436.753 166.218 441.619 159.913C447.171 152.74 452.754 145.598 458.276 138.395C458.963 137.499 460.127 136.812 460.037 135.437C460.216 135.377 460.366 135.317 460.545 135.287C460.455 135.168 460.366 135.048 460.306 134.929C460.186 135.078 460.097 135.228 459.978 135.377Z" fill="#662E91"/>
<path d="M482.187 67.2097C482.187 52.6259 492.575 39.5363 506.008 37.2052C524.666 33.9478 540.636 49.9063 537.83 69.0327C535.919 82.1223 527.203 92.3728 515.531 95.182C498.814 99.2164 482.694 86.7843 482.187 69.3913C482.187 68.6442 482.187 67.9269 482.187 67.2097Z" fill="#662E91"/>
<path d="M718.192 91.4465C719.595 90.0419 720.908 88.6672 722.281 87.412C727.535 82.6603 734.67 81.5845 739.744 84.7523C744.968 88.0097 747.088 94.6143 745.028 101.577C743.177 107.853 739.207 112.725 734.401 116.968C726.67 123.752 717.684 128.295 708.221 132.12C706.759 132.718 705.803 132.628 704.848 131.343C697.356 121.481 690.788 111.2 688.878 98.6189C688.102 93.4189 688.549 88.3384 690.997 83.6465C693.803 78.2373 698.221 75.0098 704.49 75.3684C710.669 75.727 714.401 79.5523 716.46 85.1706C717.177 87.1132 717.595 89.2051 718.192 91.4465Z" fill="#FED006"/>
<path d="M589.144 234.177C581.711 242.545 574.278 250.882 566.845 259.28C562.875 263.733 558.994 268.246 555.024 272.728C553.442 274.521 551.621 276.075 549.532 277.271C544.457 280.229 539.382 280.558 534.457 276.942C529.531 273.326 527.591 267.678 529.143 261.701C529.979 258.413 531.561 255.515 533.591 252.795C545.83 236.448 557.979 220.041 570.338 203.814C574.756 197.986 576.696 191.083 580.487 183.761C574.039 185.913 568.577 187.765 563.114 189.559C560.965 190.276 558.815 191.053 556.606 191.471C552.039 192.368 547.92 191.382 545.323 187.228C542.666 182.924 542.516 178.412 545.412 174.078C547.173 171.418 549.74 169.685 552.636 168.4C568.935 161.078 585.473 154.264 601.592 146.524C605.891 144.462 610.369 144.552 614.757 146.465C620.219 148.855 625.682 151.216 631.085 153.756C632.996 154.653 634.16 154.414 635.682 152.89C646.907 141.653 658.25 130.536 669.534 119.359C671.146 117.745 672.847 116.281 674.937 115.265C678.818 113.382 682.579 113.382 686.012 116.101C689.594 118.941 690.997 122.646 690.072 127.219C689.385 130.626 687.504 133.345 685.325 135.885C674.161 148.945 663.026 162.064 651.802 175.064C648.13 179.308 646.22 184.478 643.772 189.349C638.668 199.48 633.772 209.701 628.847 219.892C624.19 229.545 622.697 240.154 619.831 250.344C616.219 263.195 613.055 276.165 609.622 289.075C609.174 290.779 608.458 292.482 607.682 294.066C604.04 301.567 597.353 304.735 590.07 302.494C583.443 300.462 579.562 293.887 580.816 285.937C582.756 273.685 585.025 261.492 587.174 249.299C588.04 244.368 588.905 239.466 589.771 234.535C589.562 234.446 589.353 234.296 589.144 234.177Z" fill="#C5D82D"/>
<path d="M603.861 116.908C603.831 101.368 615.861 88.7267 630.668 88.6968C644.668 88.667 655.414 99.7543 655.444 114.219C655.474 129.43 643.026 142.49 628.459 142.579C614.548 142.639 603.891 131.522 603.861 116.908Z" fill="#C5D82D"/>
<path d="M544.636 380.015C550.576 374.247 555.084 367.792 559.323 361.158C560.726 358.946 562.069 356.705 563.532 354.523C567.144 349.114 569.532 348.875 574.278 353.477C577.651 356.735 580.069 360.739 582.607 364.624C585.592 369.197 588.547 373.799 593.114 377.415C596.697 370.392 598.726 363.041 601.085 355.838C603.95 347.022 606.637 338.117 610.428 329.659C612.398 325.236 616.01 323.294 620.13 324.13C625.891 325.296 628.279 329.3 626.458 335.427C622.817 347.62 619.055 359.813 615.085 371.916C612.757 379.029 610.07 386.052 607.413 393.045C606.07 396.601 604.398 400.068 601.622 402.788C597.712 406.643 594.219 407.031 589.92 403.535C584.04 398.723 580.069 392.268 575.771 386.112C574.338 384.05 573.024 381.928 571.562 379.926C570.218 378.103 568.905 377.923 567.412 380.075C563.562 385.663 559.502 391.103 555.561 396.661C552.994 400.277 550.278 403.744 546.875 406.583C541.203 411.305 536.546 410.737 532.576 404.521C528.456 398.036 526.009 390.804 523.68 383.572C519.292 369.974 515.143 356.316 510.934 342.659C509.561 338.206 510.456 335.487 513.62 333.634C517.411 331.392 521.441 331.781 524.427 334.859C527.292 337.788 529.352 341.284 530.874 345.08C535.203 356.018 539.472 367.015 543.77 377.983C543.949 378.491 544.218 379.029 544.636 380.015Z" fill="#030303"/>
<path d="M383.021 410.318C377.648 410.438 372.304 410.527 367.02 409.242C362.513 408.137 359.737 405.298 359.767 401.084C359.856 383.631 357.08 366.387 356.214 348.994C355.558 335.755 357.08 333.663 369.707 329.3C377.051 326.76 384.603 325.086 392.394 324.758C404.364 324.25 412.036 332.468 410.783 344.332C410.424 347.918 409.499 351.355 408.603 354.822C407.827 357.84 408.603 360.231 411.439 361.785C412.693 362.472 413.887 363.279 415.111 363.967C424.216 369.107 428.932 378.192 427.38 387.725C425.619 398.573 418.007 406.762 407.559 408.555C399.499 409.99 391.23 409.96 383.021 410.318ZM374.483 388.652C374.543 389.608 374.603 390.564 374.633 391.491C374.782 395.914 376.513 397.796 380.842 398.125C382.274 398.245 383.707 398.215 385.11 398.065C392.603 397.288 399.857 395.316 407.111 393.433C410.991 392.447 412.872 389.309 413.35 385.514C414.186 379.118 411.021 374.486 404.484 372.813C397.081 370.9 390.125 373.321 383.23 375.562C375.17 378.192 373.886 380.284 374.483 388.652ZM387.409 336.801C383.558 336.981 378.543 338.236 373.886 340.896C371.946 342.001 370.185 343.555 370.453 345.916C371.05 351.236 371.021 356.645 372.065 361.935C372.543 364.325 373.797 364.624 375.856 364.086C380.513 362.891 384.782 360.829 388.961 358.528C393.976 355.778 396.633 351.564 397.23 345.946C397.976 339.252 395.648 336.712 387.409 336.801Z" fill="#030303"/>
<path d="M92.597 393.613C92.597 396.362 92.6269 399.112 92.597 401.861C92.5373 404.79 91.2239 407.121 88.9552 408.914C83.2237 413.457 77.94 411.544 76.0594 404.521C74.1489 397.379 74.8355 390.057 74.3578 382.825C73.4324 369.018 70.6861 355.39 70.6861 341.494C70.6861 331.632 72.4175 329.211 81.7908 326.342C90.4776 323.682 99.1942 321.232 108.388 323.921C115.881 326.133 121.881 330.436 126.329 336.772C130.986 343.347 130.001 350.071 125.941 356.496C123.463 360.411 120.657 364.146 117.941 367.912C114.538 372.664 114.508 377.356 117.971 382.107C119.881 384.707 121.672 387.367 123.553 389.967C125.374 392.477 127.075 395.048 128.419 397.857C131.284 403.864 130.687 407.48 126.419 409.512C120.001 412.59 115.344 411.155 112.538 405.059C109.135 397.737 105.851 390.326 102.597 382.944C101.642 380.733 100.657 378.73 97.7613 379.149C94.9553 379.537 93.0149 381.181 92.7761 383.96C92.4776 387.158 92.7164 390.385 92.7164 393.613C92.6567 393.613 92.6269 393.613 92.597 393.613ZM97.3732 336.891C96.7762 336.891 96.1792 336.891 95.5822 336.891C88.6865 337.041 86.1193 340.119 87.0148 346.873C87.373 349.473 87.4327 352.103 87.6118 354.703C87.7909 357.452 88.0298 360.172 88.9253 362.802C89.8208 365.461 91.8806 366.806 94.4776 365.999C103.075 363.31 109.851 358.379 112.627 349.383C114.209 344.273 111.642 339.94 106.508 338.206C103.552 337.28 100.478 336.921 97.3732 336.891Z" fill="#030303"/>
<path d="M341.08 385.932C340.9 389.817 341.617 394.151 339.796 398.245C337.497 403.385 334.094 404.431 329.617 401.084C324.9 397.558 321.288 392.895 317.378 388.562C309.139 379.477 301.079 370.213 292.929 361.008C292.362 360.381 291.795 359.783 291.168 359.245C290.661 358.797 290.123 358.139 289.317 358.438C288.452 358.797 288.84 359.663 288.72 360.321C287.885 365.431 288.392 370.571 288.959 375.652C289.616 381.748 289.467 387.815 289.377 393.882C289.317 396.9 288.81 399.829 287.168 402.429C285.168 405.626 281.258 407.27 277.556 406.374C274.004 405.507 273.108 402.668 272.869 399.56C271.705 383.87 270.541 368.181 269.466 352.461C269.138 347.47 268.272 342.48 269.168 337.489C270.302 331.273 273.914 329.48 279.437 332.588C286.81 336.712 292.571 342.838 298.601 348.576C306.183 355.838 313.646 363.22 321.169 370.542C321.915 371.259 322.572 372.544 323.766 372.096C324.93 371.647 324.602 370.243 324.602 369.197C324.572 360.56 322.542 352.162 321.378 343.675C321.019 341.075 320.542 338.475 320.482 335.875C320.393 331.572 322.542 329.271 327.079 328.464C331.259 327.716 334.602 329.48 336.065 333.185C337.199 336.024 337.02 339.073 337.288 342.001C338.572 356.555 340.632 370.99 341.08 385.932Z" fill="#030303"/>
<path d="M228.212 399.351C228.033 402.279 226.749 405.059 224.301 407.181C220.54 410.438 216.57 409.93 214.152 405.537C211.286 400.337 208.778 394.928 206.271 389.519C202.39 381.181 198.719 379.148 189.733 380.015C184.539 380.523 179.285 380.374 174.121 381.27C170.121 381.958 167.285 384.02 165.822 387.755C164.24 391.85 162.867 396.033 161.345 400.187C159.434 405.387 156.27 409.213 150.449 410.438C143.792 411.843 140.18 408.286 142.15 401.592C143.762 396.123 145.822 390.774 147.643 385.365C153.434 368.211 159.345 351.116 166.419 334.471C167.584 331.721 168.748 328.972 170.718 326.671C174.927 321.799 180.897 321.62 185.345 326.342C186.479 327.537 187.494 328.942 188.3 330.376C199.733 350.758 212.301 370.452 224.779 390.176C226.51 392.896 228.152 395.645 228.212 399.351ZM180.061 370.123C180.061 370.153 180.061 370.183 180.091 370.243C182.808 369.854 185.524 369.585 188.211 369.047C190.688 368.569 192.121 366.926 191.226 364.385C188.927 357.96 185.673 351.983 181.076 346.903C178.897 344.482 176.897 344.96 175.643 347.979C173.793 352.372 172.688 357.004 171.793 361.696C170.39 368.988 171.673 370.542 179.017 370.273C179.345 370.213 179.703 370.153 180.061 370.123Z" fill="#030303"/>
<path d="M433.35 367.971C433.29 342.988 453.679 325.625 477.739 329.749C487.5 331.422 494.605 337.011 498.605 345.946C504.247 358.528 504.247 371.498 499.053 384.199C493.62 397.468 481.59 405.387 468.843 404.909C453.619 404.312 440.514 394.808 435.589 380.822C434.096 376.519 433.201 372.096 433.35 367.971ZM450.336 367.613C450.365 379.029 459.082 388.443 469.619 388.383C480.247 388.353 489.65 378.013 489.709 366.328C489.769 354.583 482.067 346.514 470.873 346.574C459.052 346.663 450.306 355.599 450.336 367.613Z" fill="#030303"/>
<path d="M236.391 373.889C236.271 368.181 235.525 362.473 235.943 356.735C236.242 352.581 237.048 348.636 241.466 346.693C244.928 345.169 247.406 345.857 249.376 349.114C251.197 352.132 251.884 355.569 252.152 359.006C253.287 373.5 254.6 387.994 253.735 402.578C253.615 404.371 253.436 406.134 253.167 407.898C252.809 410.229 251.943 412.321 249.346 412.978C246.481 413.695 243.913 413.187 241.854 410.916C238.928 407.688 238.48 403.594 238.122 399.59C237.346 391.043 236.928 382.466 236.391 373.889Z" fill="#030303"/>
<path d="M234.958 329.002C235.018 323.742 238.122 320.365 242.928 320.395C247.705 320.425 250.929 323.682 250.958 328.523C250.958 334.112 247.496 337.788 242.302 337.728C237.734 337.668 234.898 334.291 234.958 329.002Z" fill="#030303"/>
<path d="M162.718 446.897C162.628 433.389 166.061 430.58 178.211 432.642C187.256 434.166 196.45 434.674 205.286 437.304C221.018 442.026 231.107 455.265 230.869 470.805C230.719 480.608 225.525 487.601 217.913 493.07C207.883 500.242 196.301 502.663 184.33 503.918C181.136 504.246 177.912 504.545 174.718 504.635C170.002 504.814 167.942 503.171 167.434 498.27C166.658 490.918 166.27 483.536 165.703 476.155C164.867 465.964 163.016 455.863 162.718 446.897ZM176.211 455.474C176.45 465.874 178.748 476.005 180.659 486.166C181.196 489.065 183.017 490.888 186.211 490.44C194.838 489.274 203.017 486.824 209.644 480.966C219.077 472.658 216.57 457.477 205.077 452.247C199.226 449.587 193.107 447.615 186.898 446.061C177.972 443.849 176.181 445.343 176.181 454.369C176.211 454.757 176.211 455.116 176.211 455.474Z" fill="#030303"/>
<path d="M426.932 470.626C426.932 479.801 426.932 489.005 426.932 498.18C426.932 500.212 426.843 502.215 426.335 504.217C425.44 507.773 422.932 509.267 419.529 509.477C416.365 509.686 413.917 508.341 412.753 505.293C411.171 501.198 411.021 496.925 411.589 492.621C412.454 486.077 410.753 483.865 404.215 483.208C399.021 482.7 394.006 483.835 389.021 485.031C386.006 485.748 385.2 488.049 385.558 490.798C385.857 493.159 386.454 495.49 386.752 497.851C387.349 502.782 384.692 506.159 379.797 506.877C375.23 507.564 372.812 505.681 371.647 500.511C368.215 485.031 365.916 469.341 364.035 453.592C363.438 448.511 365.408 445.523 369.588 444.626C373.946 443.7 376.991 445.553 378.215 450.006C379.439 454.518 379.558 459.21 380.274 463.783C381.051 468.714 382.006 469.76 386.961 469.849C393.26 469.939 399.588 469.789 405.887 469.52C410.245 469.341 411.887 467.608 411.887 463.155C411.887 456.73 411.529 450.275 411.35 443.849C411.26 440.95 411.768 438.111 412.872 435.452C414.126 432.493 416.096 430.431 419.678 430.849C423.051 431.208 425.708 433.449 426.156 437.006C426.574 440.412 426.604 443.909 426.634 447.346C426.693 455.116 426.663 462.856 426.663 470.626C426.783 470.626 426.843 470.626 426.932 470.626Z" fill="#030303"/>
<path d="M90.4477 462.109C96.1493 454.458 101.433 447.316 106.776 440.203C108.15 438.38 109.582 436.647 111.105 434.973C111.881 434.107 112.836 433.359 113.821 432.702C116.389 430.999 118.866 431.477 120.986 433.479C123.045 435.451 122.717 437.723 121.344 439.994C116.717 447.644 112.06 455.265 107.463 462.916C104.388 468.056 104.538 469.132 108.836 473.405C114.597 479.113 120.418 484.791 126.18 490.47C127.374 491.635 128.538 492.83 129.583 494.145C131.434 496.447 133.046 499.017 130.956 501.915C128.896 504.784 125.881 505.801 122.448 505.113C119.881 504.605 117.941 503.021 116.269 501.079C110.866 494.863 105.433 488.676 100.12 482.43C98.8061 480.906 97.6419 479.502 95.3732 480.189C92.9851 480.906 92.4776 482.819 92.4478 484.971C92.4179 489.513 92.5373 494.056 92.3881 498.598C92.1493 504.904 89.6716 507.713 84.7461 507.713C80.7162 507.713 78.7161 506.309 78.149 502.244C77.3131 496.357 76.746 490.41 76.2982 484.463C75.2235 470.297 74.4773 456.132 74.6265 441.936C74.6564 439.486 75.1041 437.155 77.134 435.481C81.0446 432.284 86.6566 434.196 87.582 439.307C88.5671 444.805 89.0149 450.424 89.6716 455.982C89.8806 457.805 90.1194 459.628 90.4477 462.109Z" fill="#030303"/>
<path d="M290.183 475.856C290.213 466.92 291.556 460.525 294.064 454.399C300.691 438.171 315.557 431.268 332.96 436.169C339.527 438.022 345.378 440.95 349.498 446.688C351.975 450.125 351.886 452.934 349.199 455.265C346.722 457.417 344.602 457.148 341.348 454.339C335.706 449.468 329.378 446.15 321.766 445.881C317.676 445.732 314.333 447.376 311.587 450.245C301.765 460.435 302.064 479.771 312.124 489.723C323.049 500.511 338.572 497.582 344.483 483.566C345.677 480.757 346.542 477.769 350.662 478.755C354.155 479.592 355.916 481.952 356.035 486.106C356.155 490.619 354.602 494.265 351.587 497.762C335.408 516.589 308.422 510.403 298.631 498.389C292.72 491.127 290.153 482.819 290.183 475.856Z" fill="#030303"/>
<path d="M463.291 438.589C480.276 438.589 489.053 445.045 492.635 457.267C495.023 465.486 494.993 473.764 492.247 481.923C488.754 492.233 482.097 499.704 471.112 501.557C459.977 503.44 450.216 499.734 443.111 490.858C434.753 480.428 433.678 468.624 439.111 456.58C444.544 444.536 454.485 438.948 463.291 438.589ZM483.261 469.461C483.202 459.867 476.694 453.024 467.649 453.084C457.619 453.143 450.246 460.734 450.335 470.985C450.395 480.458 457.53 488.109 466.395 488.169C475.411 488.198 483.321 479.442 483.261 469.461Z" fill="#030303"/>
<path d="M564.517 468.863C564.935 477.38 562.845 485.18 557.502 491.904C546.397 505.861 525.083 505.203 513.441 490.679C504.874 479.98 504.187 464.201 511.769 452.546C518.994 441.429 532.874 436.079 545.83 439.426C556.099 442.056 563.382 451.44 564.457 463.514C564.666 465.277 564.517 467.07 564.517 468.863ZM553.92 469.461C553.86 459.927 547.322 453.054 538.278 453.084C528.337 453.114 520.785 460.854 520.874 470.955C520.964 480.369 528.247 488.169 536.964 488.199C545.949 488.199 553.979 479.353 553.92 469.461Z" fill="#030303"/>
<path d="M260.63 507.534C243.854 507.713 234.301 495.311 237.406 480.369C238.242 476.364 242.361 474.033 246.182 474.87C250.212 475.766 251.436 478.306 250.541 483.925C249.705 489.095 251.496 492.92 255.556 494.564C260.302 496.477 265.377 495.012 268.242 490.888C272.422 484.851 271.377 477.081 265.675 472.21C262.899 469.849 259.645 468.444 256.212 467.398C252.003 466.113 247.794 464.828 244.451 461.631C237.316 454.817 237.376 445.254 244.69 438.739C247.555 436.169 250.899 434.316 254.6 433.27C263.257 430.789 272.66 437.603 272.481 446.12C272.422 448.93 271.377 450.902 268.601 451.858C265.914 452.785 264.989 450.842 263.824 449.199C261.765 446.3 258.75 445.373 255.436 445.224C253.257 445.134 251.914 446.509 251.108 448.392C250.302 450.304 251.048 451.888 252.541 453.173C254.66 455.026 257.317 455.773 259.944 456.61C269.436 459.628 276.272 465.844 281.019 474.362C285.885 483.148 283.884 493.697 276.451 500.451C271.138 505.233 264.869 507.385 260.63 507.534Z" fill="#030303"/>
<path d="M575.413 441.757C575.502 436.318 578.248 433.21 582.637 433.001C587.264 432.792 590.129 435.123 590.458 440.293C591.025 449.079 591.144 457.925 591.413 466.741C591.592 472.808 591.622 478.904 591.891 484.971C592.099 489.424 593.055 490.171 597.473 489.603C601.712 489.095 605.951 488.348 610.189 487.81C612.309 487.541 614.488 487.362 616.578 487.541C621.055 487.9 623.145 489.902 623.264 493.488C623.384 497.373 621.443 499.674 617.085 500.391C612.16 501.198 607.174 501.826 602.249 502.543C598.249 503.111 594.219 503.649 590.249 504.336C583.741 505.472 580.487 503.32 579.562 496.745C579.025 492.98 578.816 489.155 578.517 485.359C577.472 470.596 576.428 455.863 575.413 441.757Z" fill="#030303"/>
<path d="M151.255 489.723C151.255 494.026 151.374 498.329 151.225 502.603C151.106 505.532 150.568 508.461 146.867 508.998C143.673 509.477 141.165 507.803 139.762 504.306C137.941 499.764 138.15 494.923 137.792 490.201C137.195 481.863 136.777 473.525 136.359 465.187C136.21 462.557 136.479 459.897 137.285 457.417C138.27 454.399 140.658 452.665 143.703 452.546C146.479 452.426 147.792 454.697 148.628 457.029C149.165 458.583 149.703 460.226 149.852 461.87C150.628 471.134 151.762 480.399 151.255 489.723Z" fill="#030303"/>
<path d="M149.106 437.902C149.135 442.474 146.359 445.672 142.24 445.822C138.449 445.941 135.673 442.923 135.613 438.589C135.553 434.166 138.329 431.148 142.449 431.178C146.479 431.208 149.076 433.838 149.106 437.902Z" fill="#030303"/>
<path d="M290.72 295.769C291.914 291.795 290.899 288.477 290.422 285.1C290.153 283.128 289.496 280.827 292.511 280.289C295.497 279.751 296.183 281.694 296.362 284.114C296.81 290.181 297.825 296.188 297.765 302.314C297.735 303.988 297.735 305.9 295.944 306.647C294.183 307.365 293.108 305.841 292.064 304.735C288.72 301.149 285.467 297.533 282.123 293.976C281.347 293.139 280.78 292.004 279.347 291.615C278.272 293.588 278.929 295.59 279.138 297.533C279.437 300.162 279.407 302.792 278.899 305.362C278.571 307.066 277.466 308.112 275.675 308.142C273.824 308.172 273.198 306.946 273.108 305.362C272.63 298.698 272.153 292.034 271.735 285.369C271.645 283.935 271.586 282.381 273.048 281.514C274.75 280.498 276.093 281.783 277.168 282.71C280.78 285.818 284.243 289.105 287.705 292.392C288.78 293.379 289.705 294.604 290.72 295.769Z" fill="#030303"/>
<path d="M301.676 295.321C301.706 287.043 305.586 280.767 312.064 279.243C317.467 277.988 322.452 279.154 326.512 283.188C327.676 284.354 328.482 285.758 327.229 287.282C325.885 288.896 324.482 288.119 323.199 287.043C323.02 286.894 322.87 286.685 322.691 286.565C318.751 283.606 314.363 282.889 311.795 284.712C308.571 287.013 306.96 292.811 308.273 297.443C309.437 301.597 312.81 304.347 316.99 304.735C320.721 305.094 323.109 303.39 324.602 300.133C325.229 298.758 325.617 296.905 327.766 297.593C329.856 298.28 330.154 299.954 329.826 301.926C329.288 305.363 324.661 309.547 320.214 310.473C309.855 312.595 301.646 305.901 301.676 295.321Z" fill="#030303"/>
<path d="M345.229 308.919C343.08 308.919 340.93 308.949 338.811 308.919C336.393 308.889 334.811 307.544 334.841 305.243C334.9 298.429 333.468 291.735 333.05 284.981C332.841 281.574 334.274 280.2 337.557 280.11C342.304 280.02 347.05 279.751 351.826 279.542C353.528 279.452 355.229 279.841 355.289 281.754C355.378 283.875 353.498 283.816 351.916 283.875C348.96 284.025 346.005 284.294 343.02 284.503C340.333 284.652 339.736 286.296 339.796 288.657C339.856 291.257 341.378 291.855 343.587 291.705C345.378 291.586 347.139 291.406 348.931 291.406C350.811 291.406 353.289 291.137 353.169 293.857C353.08 296.128 350.722 295.56 349.169 295.68C347.528 295.829 345.856 295.889 344.184 295.979C342.214 296.068 341.02 296.845 341.229 299.057C341.438 301.059 341.259 303.181 344.095 303.629C345.796 303.898 347.408 303.51 349.05 303.39C350.483 303.301 351.916 303.211 353.319 303.301C355.05 303.39 355.856 304.616 355.916 306.17C355.975 307.724 354.841 308.62 353.468 308.71C350.751 308.859 348.005 308.77 345.259 308.77C345.229 308.829 345.229 308.889 345.229 308.919Z" fill="#030303"/>
<path d="M410.932 297.592C410.932 301.298 410.902 305.004 410.932 308.71C410.962 311.16 410.215 313.103 407.499 313.192C404.424 313.282 404.693 310.921 404.812 308.859C404.962 306.468 405.081 304.107 405.35 301.716C405.559 299.684 404.723 298.818 402.693 299.027C401.618 299.146 400.544 299.296 399.499 299.236C393.558 299.027 389.618 294.215 390.484 288.358C391.618 280.946 397.349 276.882 404.544 278.197C408.275 278.884 410.245 280.946 410.424 284.682C410.633 288.956 410.812 293.259 411.021 297.533C411.021 297.592 410.962 297.592 410.932 297.592ZM405.559 287.581C405.26 285.609 405.588 282.71 402.066 282.441C398.902 282.172 395.17 286.057 395.2 289.344C395.23 292.034 397.648 294.335 400.573 294.425C403.738 294.544 405.559 292.183 405.559 287.581Z" fill="#030303"/>
<path d="M245.466 309.786C238.122 309.786 234.063 304.914 235.048 299.057C235.406 296.995 236.421 295.8 238.63 295.889C241.137 295.979 241.018 297.802 240.869 299.475C240.69 301.567 241.048 303.271 243.167 304.197C244.929 304.974 246.511 304.586 247.764 303.331C249.436 301.687 249.914 299.595 249.138 297.413C248.421 295.381 246.809 294.156 244.869 293.349C243.764 292.901 242.6 292.692 241.466 292.273C237.675 290.839 235.406 287.641 235.943 284.473C236.481 281.216 240.749 277.928 244.391 277.988C247.555 278.018 250.272 280.618 250.212 283.547C250.212 284.533 250.123 285.489 249.108 285.967C248.063 286.475 247.287 286.087 246.63 285.25C246.272 284.802 245.854 284.234 245.346 284.055C243.943 283.547 242.272 282.501 241.376 284.593C240.54 286.475 242.182 287.103 243.526 287.551C246.6 288.597 249.436 289.972 251.675 292.452C254.571 295.68 256.272 299.206 254.362 303.51C252.391 307.903 248.66 309.666 245.466 309.786Z" fill="#030303"/>
<path d="M422.275 300.491C423.439 299.206 424.245 298.22 425.171 297.323C427.917 294.693 431.081 293.916 434.693 295.351C437.44 296.457 438.753 298.549 438.753 301.448C438.783 305.333 437.38 308.441 433.768 310.204C427.768 313.133 419.887 309.935 417.469 303.689C414.603 296.218 417.111 286.385 423.201 281.156C424.395 280.14 425.738 279.542 427.022 280.677C428.275 281.783 428.126 283.307 427.201 284.563C425.529 286.864 423.678 289.045 422.335 291.585C420.902 294.395 420.424 297.174 422.275 300.491ZM428.962 306.379C431.499 306.199 433.619 305.482 433.768 302.613C433.858 300.7 432.843 299.475 430.783 299.505C428.634 299.505 425.619 302.195 425.678 304.197C425.708 306.528 427.798 305.9 428.962 306.379Z" fill="#030303"/>
<path d="M448.664 278.944C450.932 278.944 453.171 278.944 455.44 278.944C458.455 278.914 459.559 280.558 459.052 283.307C458.694 285.16 458.097 287.013 457.41 288.747C454.724 295.471 451.44 302.015 451.32 309.517C451.291 311.579 449.798 312.415 447.888 312.326C445.917 312.206 444.902 311.071 444.932 309.038C445.022 303.032 447.35 297.682 449.738 292.333C450.843 289.882 453.589 287.103 452.395 284.951C451.171 282.71 447.589 284.891 445.052 284.473C443.529 284.204 441.977 284.264 440.425 284.114C439.171 283.995 437.887 283.666 438.007 282.112C438.096 280.737 438.843 279.602 440.455 279.482C443.201 279.303 445.917 279.213 448.664 279.064C448.664 279.004 448.664 278.974 448.664 278.944Z" fill="#030303"/>
<path d="M375.707 284.593C375.946 282.142 375.558 280.11 377.797 279.751C379.767 279.423 380.304 281.246 380.901 282.62C381.558 284.144 381.797 285.788 381.976 287.462C382.513 293.259 382.842 299.087 384.663 304.675C384.961 305.572 385.11 306.558 385.11 307.485C385.11 309.009 385.26 310.712 383.11 311.101C380.991 311.459 379.498 310.533 379.17 308.471C377.886 300.252 376.782 292.004 375.707 284.593Z" fill="#030303"/>
<path d="M259.884 296.666C259.884 294.962 259.824 292.602 259.914 290.211C259.974 288.268 260.6 286.595 262.869 286.475C264.959 286.356 265.377 288.238 265.556 289.673C266.242 295.56 266.869 301.507 266.332 307.454C266.212 308.799 266.123 310.473 264.063 310.503C262.123 310.533 261.197 309.247 260.988 307.634C260.511 304.197 260.272 300.76 259.884 296.666Z" fill="#030303"/>
<path d="M265.257 280.797C265.287 282.471 264.153 283.666 262.272 283.666C260.302 283.666 259.376 282.202 259.496 280.319C259.615 278.645 260.362 277.36 262.302 277.36C264.362 277.36 265.347 278.436 265.257 280.797Z" fill="#030303"/>
</svg>
